<svg width="891" height="89" viewBox="0 0 891 89" fill="none" xmlns="http://www.w3.org/2000/svg">
<path d="M205.453 79.1633L226.067 36.5959H235.716L210.803 86.9993H197.842L173.072 36.5959H184.809L205.453 79.1633ZM298.238 86.9993H286.718L280.813 74.9749H250.832L244.955 86.9993H235.595L260.508 36.5959H272.677L298.238 86.9993ZM360.894 40.845L323.124 79.7268H361.686V86.9993H306.818V82.7512L344.588 43.8684H307.25V36.5959H360.894V40.845ZM410.303 36.5959C414.527 36.596 418.007 37.0763 420.743 38.0364C423.527 38.9964 425.591 40.4366 426.936 42.3567C428.28 44.2288 428.951 46.5812 428.951 49.4133C428.951 51.9573 428.208 54.1654 426.72 56.0374C425.381 57.778 423.522 59.1433 421.146 60.137C422.156 60.3974 423.127 60.7345 424.056 61.1497C426.312 62.1577 428.088 63.6456 429.384 65.6135C430.728 67.5335 431.399 69.862 431.399 72.5979C431.399 75.6221 430.656 78.2151 429.168 80.3752C427.728 82.4872 425.567 84.1187 422.688 85.2708C419.855 86.4228 416.375 86.9992 412.247 86.9993H376.893V36.5959H410.303ZM469.484 57.3401L487.304 36.5959H497.816L473.767 64.2629V86.9993H462.822V64.344L438.845 36.5959H451.733L469.484 57.3401ZM565.904 53.3459L591.195 86.9993H578.738L557.263 58.387L544.536 66.6379V86.9993H533.592V36.5959H544.536V57.8762L576.65 36.5247H590.691L565.904 53.3459ZM630.103 79.1633L650.717 36.5959H660.365L635.452 86.9993H622.491L597.722 36.5959H609.458L630.103 79.1633ZM722.512 44.4446H684.277V57.4055H713.367V65.1096H684.277V79.1506H723.16V86.9993H673.333V36.5959H722.512V44.4446ZM790.079 44.8772H767.326V86.9993H756.31V44.8772H733.412V36.5959H790.079V44.8772ZM815.229 86.9993H804.285V36.5959H815.229V86.9993ZM881.642 75.8567L881.474 73.0305V36.5959H890.906V86.9993H879.098L843.967 45.6057L844.248 48.6213V86.9993H834.743V36.5959H848.28L881.642 75.8567ZM387.766 79.5833H410.519C413.783 79.5832 416.254 78.9583 417.935 77.7102C419.663 76.4622 420.527 74.6627 420.527 72.3108C420.527 69.9587 419.663 68.1342 417.935 66.8381C416.254 65.5422 413.783 64.8938 410.519 64.8938H387.766V79.5833ZM254.632 67.1985H276.995L265.786 44.3733L254.632 67.1985ZM387.766 57.7659H408.502C410.614 57.7659 412.367 57.4776 413.759 56.9016C415.199 56.3256 416.279 55.5094 416.999 54.4534C417.767 53.3973 418.151 52.125 418.151 50.637C418.151 48.4769 417.335 46.8445 415.703 45.7405C414.071 44.5884 411.67 44.0129 408.502 44.0129H387.766V57.7659ZM697.464 27.8723L705.951 20.9709H715.096L703.503 32.9963H691.262L679.669 20.9709H689.03L697.464 27.8723Z" fill="#522953"/>
<path d="M1.51149e-05 88.9994C-0.00449068 86.8227 0.999174 84.7 1.96792 82.8033C4.75701 77.3449 8.36727 72.4235 9.5354 66.1952C10.3543 61.8258 9.87784 57.5102 9.90825 53.0983C9.69873 53.0478 9.68972 53.1706 9.58947 53.2888C8.95415 54.0404 8.43261 55.1798 7.86037 56.0014L5.96794 60.209C5.30221 53.3932 7.39627 46.3078 11.2803 40.7886C14.4512 36.2826 19.3468 32.2046 24.5724 30.4708C27.6859 29.4381 30.8455 28.6969 33.9512 27.5219C35.8492 26.8036 37.6639 25.9143 39.5226 25.1088V24.8816C36.9689 25.3877 33.941 25.3567 31.4426 24.5673C30.8771 24.3883 30.1776 24.1106 29.727 23.7354C33.7856 22.7715 37.7495 21.0859 41.5141 19.281C43.0709 18.534 44.6535 17.7377 46.1731 16.915C49.058 15.3522 51.7761 13.4589 54.7251 12.0326L54.6677 11.8031C52.3089 12.0785 49.9467 12.5421 47.7479 13.4715C47.4911 13.5805 46.0289 14.4009 45.9422 14.3264C51.2511 5.57942 63.2726 5.03439 71.8832 8.46982C72.0127 8.42966 72.5298 6.94946 72.6841 6.6408C76.8598 -1.75387 88.2809 -2.33791 93.1708 5.73547C94.3164 7.62645 94.5665 9.69758 95.6231 11.4956C96.3068 12.6603 97.4648 13.7538 98.2984 14.8496C103.649 21.8845 106.926 30.7692 107.873 39.6217C108.228 42.9412 108.229 46.2493 108.084 49.5837L107.994 49.7214C104.88 49.8522 101.78 48.2297 99.3753 46.3273C99.0846 46.0967 97.7002 44.9251 97.5774 44.7174C97.2744 44.2022 96.9658 42.7025 96.6662 41.9762C95.7763 39.8213 94.5011 38.8816 92.7281 37.5012C92.5141 37.6699 92.5918 37.6331 92.6515 37.8041C92.8396 38.3469 93.8669 40.1024 93.8973 40.4444C93.9131 40.6188 93.8343 40.6176 93.7182 40.6865C93.3454 40.9079 92.3507 41.2476 91.908 41.3658C89.618 41.9728 87.4067 41.5287 85.2406 40.7094C85.4895 39.126 85.1144 37.0055 83.89 35.8936C84.3698 37.6779 83.9328 39.3222 83.6365 41.0858C83.1972 41.5964 82.6362 41.9693 82.2026 42.4925C80.5377 44.5063 79.7976 47.6124 79.1578 50.1161C79.0158 50.1494 79.017 49.998 78.9888 49.8901C78.821 49.2601 78.7815 48.5212 78.6103 47.8649C78.3231 46.761 77.886 45.4082 77.2462 44.496C77.2732 46.73 77.3126 48.8585 76.8722 51.0547C75.9958 55.4208 73.4636 59.6697 69.815 62.1597C70.7038 59.9474 71.0158 57.5435 71.0519 55.1626C71.0237 55.1236 70.9246 55.2234 70.884 55.2773C70.225 56.1425 69.7429 58.5315 68.9724 59.524C66.6621 63.5492 64.2335 67.4884 62.4424 71.7982C61.1718 74.8549 58.6846 81.4493 59.9203 84.5692C60.4891 86.0058 61.9828 87.4378 62.4954 89.0006H47.2939C47.4843 86.9834 48.3945 85.1521 48.8845 83.2232C50.2396 77.8876 49.5637 72.4832 50.1224 67.0501C50.7105 61.337 52.0306 57.0341 54.368 51.8752C54.4153 51.7696 54.6125 51.5791 54.4424 51.4919C54.261 51.4827 54.1608 51.6663 54.0526 51.7834C52.9667 52.9526 51.9056 54.1391 51.0743 55.5171C49.3587 58.3628 48.3505 61.8177 48.0813 65.143C42.7284 65.7294 37.3023 65.8705 31.9787 64.9124C32.4676 63.8682 33.086 62.9021 33.4961 61.8143C34.1427 60.1 34.7937 57.1419 34.5673 55.3335C34.547 55.1752 34.4997 54.9916 34.3432 55.1637C32.6197 60.7644 28.9531 65.8246 24.7717 69.7901C21.1671 73.2095 15.3434 77.05 13.5073 81.8302C12.3324 84.887 14.0412 86.3833 15.1992 89.0017H1.51149e-05V88.9994ZM79.6117 13.7561C73.9603 12.1164 64.4328 14.1049 67.1701 22.1266C68.2369 25.2511 73.8545 30.9688 77.2068 31.1788C79.2682 31.3073 80.5118 29.2511 80.7359 27.4037C79.6466 28.4341 78.7996 29.5689 77.1031 29.2132C75.2051 28.8151 70.3197 22.7658 69.7632 20.8599C68.3619 16.0601 73.9829 14.2862 77.6416 13.9844C78.2183 13.9374 78.8897 14.0556 79.4439 13.9844C79.6005 13.9638 79.7728 13.9213 79.6106 13.7561H79.6117ZM90.7591 22.2414C91.4068 22.1335 91.3966 22.6854 91.7143 23.048C93.591 25.1892 95.1973 21.9029 93.3375 21.0503C92.3327 20.5902 91.525 21.3326 90.8312 22.0027C90.7354 22.0945 90.7298 22.0819 90.7579 22.2414H90.7591Z" fill="#522953"/>
<path d="M77.36 88.9993C77.4389 86.141 77.2744 83.2896 76.4893 80.538C74.972 75.222 71.4901 70.8594 67.1037 67.7108C67.0868 67.5915 68.1637 65.7246 68.2696 65.6328C68.4487 65.479 69.5278 65.0407 69.8905 64.817C73.4569 62.6173 76.0556 59.6615 77.8297 55.813C77.9863 55.4734 78.5484 53.7063 78.6554 53.6696C78.9055 53.5835 78.8019 53.852 78.8255 53.9507C80.5558 61.1842 84.4206 67.2541 85.9965 74.522C86.5428 77.0429 86.7636 79.627 87.2908 82.1502C88.7225 84.5139 91.5229 86.0274 91.8844 88.9981H77.3589L77.36 88.9993Z" fill="#522953"/>
<path d="M24.2096 88.9993C23.6813 83.2896 26.2079 77.8209 25.897 72.1044C27.6611 70.5806 29.1649 68.7905 30.6799 67.0223C33.896 67.588 37.1491 68.0034 40.4248 67.8944C39.3716 72.0596 36.5375 75.7314 35.6183 79.9161C35.4831 80.53 35.2454 81.5856 35.2421 82.18C35.2297 84.5529 38.7115 86.4611 38.8489 89.0004H24.2108L24.2096 88.9993Z" fill="#522953"/>
<path d="M85.9187 43.1177C88.0646 43.9966 90.5293 44.2525 92.7191 43.361C96.7709 50.5164 105.511 54.6655 113.322 51.245C119.532 48.5256 121.359 43.1108 121.282 36.6324C121.278 36.2365 120.992 35.9554 121.446 35.6639C124.626 38.256 124.448 43.3724 123.018 46.8997C120.778 52.4292 115.428 56.2306 109.699 57.1911C100.469 58.7367 92.3766 54.1561 87.5611 46.3202C87.329 45.9427 85.7993 43.2783 85.9198 43.1177H85.9187Z" fill="#522953"/>
<path d="M106.299 59.9806C105.533 62.9387 104.543 65.79 103.094 68.4705C101.125 72.1079 97.5098 76.9615 92.8136 75.2668C91.276 74.7114 89.9434 73.3746 89.7485 71.6799C89.8398 71.5881 91.8572 72.0459 92.2819 72.031C95.6444 71.9162 97.1977 66.8641 97.8207 64.1308C98.2431 62.2766 98.4841 60.3845 98.6452 58.4889C101.033 59.5675 103.688 60.0276 106.301 59.9806H106.299Z" fill="#522953"/>
<path d="M115.984 57.5698C116.559 57.1211 117.304 56.8893 117.932 56.5164C119.466 55.6065 120.992 54.1412 122.112 52.7436C122.335 52.4659 122.613 51.7981 122.771 51.6375C123.069 51.3323 124.475 50.7253 124.983 50.3925C128.621 48.015 130.996 44.0552 131.297 39.6192C131.374 38.4649 131.154 37.0455 131.297 35.9474C131.312 35.8281 131.268 35.7007 131.463 35.7787C132.091 36.0289 132.992 37.4368 133.265 38.0736C134.896 41.8774 133.601 46.7574 131.388 50.0368C127.968 55.1028 121.955 57.7235 115.981 57.5698H115.984Z" fill="#522953"/>
</svg>
