<svg width="339" height="108" viewBox="0 0 339 108" fill="none" xmlns="http://www.w3.org/2000/svg">
<path d="M15.2646 103.918L24.9834 83.8506H29.5322L17.7871 107.611H11.6768L0 83.8506H5.5332L15.2646 103.918ZM59.0068 107.611H53.5762L50.792 101.942H36.6582L33.8877 107.611H29.4746L41.2197 83.8506H46.957L59.0068 107.611ZM88.5449 85.8525L70.7383 104.184H88.918V107.611H63.0518V105.609L80.8584 87.2783H63.2559V83.8506H88.5449V85.8525ZM111.838 83.8506C113.829 83.8506 115.47 84.0767 116.76 84.5293C118.072 84.9818 119.045 85.6604 119.679 86.5654C120.312 87.448 120.629 88.5574 120.629 89.8926C120.629 91.0919 120.279 92.1331 119.577 93.0156C118.945 93.8377 118.065 94.4786 116.941 94.9473C117.421 95.0703 117.881 95.229 118.321 95.4258C119.385 95.901 120.222 96.6026 120.833 97.5303C121.466 98.4353 121.783 99.5326 121.783 100.822C121.783 102.248 121.433 103.47 120.731 104.488C120.053 105.484 119.034 106.254 117.676 106.797C116.341 107.34 114.7 107.611 112.754 107.611H96.0869V83.8506H111.838ZM139.736 93.6289L148.138 83.8506H153.094L141.757 96.8926V107.611H136.597V96.9316L125.293 83.8506H131.369L139.736 93.6289ZM185.192 91.7461L197.116 107.611H191.243L181.119 94.1221L175.119 98.0117V107.611H169.96V83.8506H175.119V93.8818L190.259 83.8164H196.878L185.192 91.7461ZM215.457 103.918L225.176 83.8506H229.725L217.979 107.611H211.869L200.192 83.8506H205.726L215.457 103.918ZM259.022 87.5498H240.997V93.6602H254.711V97.292H240.997V103.912H259.328V107.611H235.838V83.8506H259.022V87.5498ZM290.876 87.7539H280.149V107.611H274.956V87.7539H264.161V83.8506H290.876V87.7539ZM302.732 107.611H297.572V83.8506H302.732V107.611ZM334.041 102.358L333.962 101.026V83.8506H338.408V107.611H332.842L316.279 88.0957L316.412 89.5186V107.611H311.932V83.8506H318.313L334.041 102.358ZM101.213 104.115H111.939C113.478 104.115 114.644 103.821 115.436 103.232C116.25 102.644 116.657 101.795 116.657 100.687C116.657 99.5779 116.25 98.7184 115.436 98.1074C114.644 97.4964 113.478 97.1904 111.939 97.1904H101.213V104.115ZM38.4502 98.2764H48.9922L43.708 87.5156L38.4502 98.2764ZM101.213 93.8301H110.989C111.985 93.83 112.811 93.6943 113.467 93.4229C114.146 93.1513 114.655 92.7664 114.994 92.2686C115.356 91.7708 115.537 91.1711 115.537 90.4697C115.537 89.4515 115.153 88.6816 114.384 88.1611C113.614 87.6181 112.483 87.3467 110.989 87.3467H101.213V93.8301ZM247.214 79.7373L251.215 76.4844H255.526L250.061 82.1533H244.29L238.825 76.4844H243.238L247.214 79.7373Z" fill="white"/>
<path d="M124 60.441C123.997 58.9628 124.679 57.5212 125.336 56.2331C127.231 52.5262 129.682 49.184 130.476 44.9543C131.032 41.9869 130.708 39.0562 130.729 36.06C130.587 36.0257 130.58 36.1091 130.512 36.1893C130.081 36.6997 129.727 37.4735 129.338 38.0314L128.053 40.8889C127.601 36.2602 129.023 31.4484 131.661 27.7002C133.814 24.6401 137.139 21.8707 140.687 20.6932C142.802 19.9919 144.948 19.4885 147.057 18.6906C148.346 18.2028 149.578 17.5989 150.84 17.0518V16.8975C149.106 17.2412 147.05 17.2201 145.353 16.684C144.969 16.5625 144.494 16.3739 144.188 16.1191C146.944 15.4645 149.636 14.3198 152.193 13.094C153.25 12.5868 154.325 12.046 155.357 11.4872C157.316 10.4259 159.162 9.14015 161.165 8.17155L161.126 8.0157C159.524 8.20272 157.92 8.51754 156.426 9.14873C156.252 9.22275 155.259 9.77991 155.2 9.72926C158.805 3.78908 166.969 3.41894 172.817 5.752C172.905 5.72472 173.256 4.7195 173.361 4.50988C176.197 -1.19108 183.953 -1.58771 187.274 3.89505C188.052 5.17925 188.222 6.58579 188.939 7.80687C189.404 8.5978 190.19 9.34042 190.756 10.0846C194.39 14.8622 196.615 20.8958 197.258 26.9077C197.499 29.1621 197.5 31.4086 197.402 33.6731L197.34 33.7666C195.226 33.8555 193.121 32.7536 191.487 31.4616C191.29 31.305 190.35 30.5094 190.266 30.3684C190.061 30.0185 189.851 29 189.648 28.5067C189.043 27.0433 188.177 26.4051 186.973 25.4677C186.828 25.5822 186.881 25.5573 186.921 25.6734C187.049 26.042 187.747 27.2342 187.767 27.4664C187.778 27.5849 187.724 27.5841 187.646 27.6309C187.392 27.7813 186.717 28.0119 186.416 28.0922C184.861 28.5044 183.359 28.2028 181.888 27.6464C182.057 26.5711 181.803 25.131 180.971 24.376C181.297 25.5877 181 26.7043 180.799 27.902C180.501 28.2488 180.12 28.5021 179.825 28.8574C178.694 30.225 178.192 32.3344 177.757 34.0347C177.661 34.0573 177.662 33.9544 177.643 33.8812C177.529 33.4534 177.502 32.9515 177.386 32.5058C177.19 31.7562 176.894 30.8375 176.459 30.218C176.478 31.7351 176.504 33.1806 176.205 34.6721C175.61 37.6372 173.89 40.5227 171.413 42.2137C172.016 40.7113 172.228 39.0788 172.252 37.4618C172.233 37.4353 172.166 37.5031 172.138 37.5397C171.691 38.1273 171.364 39.7497 170.84 40.4237C169.271 43.1573 167.622 45.8325 166.406 48.7593C165.543 50.8352 163.854 55.3136 164.693 57.4323C165.079 58.4079 166.094 59.3804 166.442 60.4418H156.118C156.247 59.0719 156.865 57.8282 157.198 56.5183C158.119 52.8948 157.66 49.2245 158.039 45.5348C158.438 41.6549 159.335 38.7328 160.922 35.2293C160.954 35.1576 161.088 35.0282 160.973 34.969C160.85 34.9628 160.781 35.0875 160.708 35.1669C159.971 35.961 159.25 36.7667 158.685 37.7026C157.52 39.6351 156.836 41.9814 156.653 44.2397C153.018 44.6379 149.333 44.7337 145.717 44.0831C146.049 43.374 146.469 42.7178 146.748 41.9791C147.187 40.8149 147.629 38.806 147.475 37.5779C147.461 37.4704 147.429 37.3457 147.323 37.4626C146.153 41.2661 143.663 44.7026 140.823 47.3956C138.375 49.7178 134.42 52.3259 133.173 55.5723C132.375 57.6482 133.536 58.6643 134.322 60.4425H124V60.441ZM178.066 9.34198C174.228 8.22844 167.757 9.57887 169.616 15.0266C170.341 17.1485 174.156 21.0314 176.432 21.174C177.832 21.2613 178.677 19.8649 178.829 18.6103C178.089 19.3101 177.514 20.0808 176.362 19.8392C175.073 19.5688 171.755 15.4606 171.377 14.1663C170.426 10.9067 174.243 9.70199 176.728 9.49705C177.119 9.4651 177.575 9.54536 177.952 9.49705C178.058 9.48302 178.175 9.45419 178.065 9.34198H178.066ZM185.636 15.1045C186.076 15.0312 186.069 15.4061 186.285 15.6523C187.559 17.1064 188.65 14.8746 187.387 14.2956C186.705 13.9832 186.156 14.4873 185.685 14.9424C185.62 15.0048 185.616 14.9962 185.635 15.1045H185.636Z" fill="white"/>
<path d="M176.536 60.4409C176.59 58.4998 176.478 56.5633 175.945 54.6947C174.915 51.0845 172.55 48.1218 169.571 45.9835C169.56 45.9025 170.291 44.6347 170.363 44.5723C170.485 44.4679 171.217 44.1702 171.464 44.0183C173.886 42.5245 175.651 40.5171 176.855 37.9035C176.962 37.6729 177.343 36.4728 177.416 36.4479C177.586 36.3895 177.516 36.5718 177.532 36.6388C178.707 41.5512 181.331 45.6734 182.402 50.6091C182.773 52.3211 182.923 54.076 183.281 55.7896C184.253 57.3948 186.155 58.4226 186.4 60.4401H176.536L176.536 60.4409Z" fill="white"/>
<path d="M140.441 60.4408C140.083 56.5632 141.798 52.8493 141.587 48.9671C142.785 47.9323 143.807 46.7167 144.835 45.5159C147.02 45.9 149.229 46.1821 151.453 46.1081C150.738 48.9368 148.813 51.4303 148.189 54.2722C148.097 54.6891 147.936 55.4061 147.934 55.8097C147.925 57.4212 150.29 58.7171 150.383 60.4415H140.442L140.441 60.4408Z" fill="white"/>
<path d="M182.349 29.2819C183.806 29.8788 185.48 30.0526 186.967 29.4471C189.719 34.3065 195.654 37.1243 200.959 34.8013C205.176 32.9545 206.417 29.2773 206.365 24.8777C206.362 24.6088 206.168 24.4179 206.476 24.22C208.635 25.9803 208.514 29.4549 207.544 31.8503C206.022 35.6055 202.389 38.1872 198.498 38.8394C192.23 39.889 186.734 36.7783 183.464 31.4568C183.307 31.2004 182.268 29.391 182.35 29.2819H182.349Z" fill="white"/>
<path d="M196.189 40.7337C195.669 42.7426 194.997 44.679 194.012 46.4994C192.675 48.9696 190.22 52.2658 187.031 51.1148C185.987 50.7377 185.082 49.8299 184.949 48.6789C185.011 48.6166 186.382 48.9275 186.67 48.9174C188.953 48.8394 190.008 45.4084 190.431 43.5523C190.718 42.293 190.882 41.008 190.991 39.7207C192.613 40.4532 194.416 40.7657 196.19 40.7337H196.189Z" fill="white"/>
<path d="M202.766 39.0965C203.157 38.7918 203.663 38.6344 204.09 38.3812C205.131 37.7632 206.167 36.7682 206.928 35.819C207.079 35.6305 207.268 35.1769 207.375 35.0678C207.578 34.8606 208.533 34.4483 208.878 34.2224C211.349 32.6078 212.961 29.9186 213.165 26.906C213.218 26.1221 213.068 25.1582 213.165 24.4124C213.176 24.3314 213.146 24.2449 213.279 24.2979C213.705 24.4678 214.317 25.4239 214.502 25.8564C215.61 28.4396 214.731 31.7537 213.227 33.9808C210.905 37.4212 206.821 39.201 202.765 39.0965H202.766Z" fill="white"/>
</svg>
