<svg xmlns="http://www.w3.org/2000/svg" viewBox="0 0 134 89" fill="#522953">
  <path d="M0 89c-.005-2.177 1-4.3 1.968-6.197 2.789-5.458 6.399-10.38 7.567-16.608.819-4.37.342-8.685.373-13.097-.21-.05-.22.073-.32.191a49.29 49.29 0 0 1-1.729 2.713L5.968 60.21c-.666-6.816 1.428-13.901 5.312-19.42 3.171-4.506 8.067-8.584 13.292-10.318 3.114-1.033 6.273-1.774 9.379-2.949 1.898-.718 3.713-1.608 5.571-2.413v-.228c-2.554.506-5.581.475-8.08-.314-.565-.179-1.265-.457-1.715-.832 4.058-.964 8.022-2.65 11.787-4.454a84.77 84.77 0 0 0 4.659-2.366c2.885-1.563 5.603-3.456 8.552-4.883l-.057-.23c-2.36.276-4.722.74-6.92 1.669-.257.109-1.72.93-1.806.855 5.31-8.747 17.33-9.292 25.94-5.857.13-.04.648-1.52.802-1.829C76.86-1.754 88.28-2.338 93.17 5.735c1.146 1.892 1.396 3.963 2.453 5.761.683 1.165 1.842 2.258 2.675 3.354 5.351 7.035 8.628 15.92 9.575 24.772.355 3.32.355 6.628.21 9.962l-.09.138c-3.114.131-6.214-1.491-8.619-3.394-.29-.23-1.675-1.402-1.798-1.61-.303-.515-.611-2.015-.912-2.741-.89-2.155-2.165-3.095-3.938-4.475-.214.169-.136.132-.076.303.188.543 1.216 2.298 1.246 2.64.016.175-.063.173-.179.243-.373.221-1.367.561-1.81.679-2.29.607-4.502.163-6.668-.656.249-1.584-.126-3.704-1.35-4.816.48 1.784.043 3.428-.253 5.192-.44.51-1 .884-1.434 1.407-1.665 2.014-2.405 5.12-3.045 7.623-.142.034-.141-.118-.17-.226-.167-.63-.208-1.369-.379-2.025-.287-1.104-.724-2.457-1.364-3.369.027 2.234.067 4.362-.374 6.559-.876 4.366-3.408 8.615-7.057 11.105.889-2.213 1.201-4.616 1.237-6.997-.028-.04-.128.06-.168.114-.66.865-1.141 3.254-1.912 4.247-2.31 4.025-4.739 7.964-6.53 12.274-1.27 3.057-3.758 9.651-2.522 12.771.569 1.436 2.062 2.868 2.575 4.431H47.294c.19-2.017 1.1-3.849 1.59-5.777 1.356-5.336.68-10.74 1.238-16.173.588-5.713 1.909-9.016 4.246-14.175.047-.106.245-.296.075-.383-.182-.01-.281.174-.39.291a30.06 30.06 0 0 0-2.978 3.734c-1.715 2.846-2.724 6.3-2.993 9.626-5.353.586-10.779.727-16.103-.231.49-1.044 1.108-2.01 1.518-3.098.647-1.714 1.297-4.673 1.071-6.481-.02-.158-.068-.342-.224-.17-1.724 5.601-5.39 10.661-9.572 14.627-3.604 3.42-9.428 7.26-11.264 12.04-1.175 3.057.534 4.553 1.692 7.172H0Zm79.612-75.244c-5.651-1.64-15.179.35-12.441 8.371 1.066 3.125 6.684 8.842 10.036 9.053 2.062.128 3.305-1.929 3.53-3.776-.89 1.03-1.736 2.165-3.433 1.81-1.898-.399-6.783-6.448-7.34-8.354-1.401-4.8 3.22-6.574 6.879-6.875.576-.047 1.248.068 1.802 0 .157-.021.33-.063.167-.228h.001Zm11.147 8.485c.648-.108.638.444.955.807 1.877 2.14 3.483-1.146 1.624-1.999-.996-.46-1.813.282-2.507.952-.095.092-.101.08-.073.24Z"/>
  <path d="M77.36 89c.079-2.858-.086-5.71-.871-8.461-1.517-5.316-4.999-9.679-9.385-12.827-.017-.12 1.06-1.987 1.166-2.079.179-.154 1.258-.592 1.62-.816 3.567-2.2 6.166-5.155 7.94-9.004.156-.34.719-2.107.825-2.143.25-.086.147.182.17.28 1.73 7.234 5.595 13.304 7.171 20.572.546 2.521.767 5.105 1.294 7.628 1.432 2.364 4.232 3.877 4.594 6.848h-14.525ZM24.21 89c-.528-5.71 1.998-11.179 1.687-16.895 1.764-1.524 3.268-3.314 4.783-5.082 3.216.565 6.469.981 9.745.872-1.053 4.165-3.888 7.837-4.807 12.022-.135.613-.373 1.669-.376 2.264-.013 2.373 3.469 4.281 3.606 6.82H24.21Z"/>
  <path d="M85.919 43.118c2.146.879 4.61 1.135 6.8.243 4.052 7.156 12.792 11.305 20.603 7.884 6.21-2.72 8.037-8.134 7.96-14.613-.004-.396-.29-.677.164-.968 3.18 2.592 3.002 7.708 1.572 11.236-2.24 5.53-7.59 9.331-13.319 10.291-9.23 1.546-17.323-3.034-22.138-10.87-.232-.378-1.762-3.042-1.641-3.203ZM106.299 59.981c-.766 2.958-1.756 5.81-3.205 8.49-1.969 3.637-5.584 8.491-10.281 6.796-1.537-.555-2.87-1.892-3.065-3.587.091-.092 2.109.366 2.533.351 3.363-.115 4.916-5.167 5.539-7.9.422-1.854.663-3.747.825-5.642 2.387 1.078 5.042 1.538 7.655 1.491ZM115.984 57.57c.575-.449 1.32-.681 1.948-1.054 1.534-.91 3.06-2.375 4.18-3.773.223-.278.501-.945.659-1.106.298-.305 1.704-.912 2.212-1.245 3.638-2.377 6.013-6.337 6.314-10.773.077-1.154-.143-2.574 0-3.672.015-.12-.029-.247.166-.169.628.25 1.529 1.658 1.802 2.295 1.631 3.804.336 8.684-1.877 11.963-3.42 5.066-9.433 7.687-15.407 7.533Z"/>
</svg>
